<svg xmlns="http://www.w3.org/2000/svg" xmlns:xlink="http://www.w3.org/1999/xlink" width="14" height="15" viewBox="0 0 14 15"><defs><path id="t3vta" d="M1378.045 2803.997c-3.84 0-6.953-3.176-6.953-7.093 0-3.918 3.113-7.094 6.953-7.094 3.84 0 6.953 3.176 6.953 7.094 0 3.917-3.113 7.093-6.953 7.093zm-.632-10.157c0 .445.354.807.79.807.436 0 .79-.362.79-.807a.798.798 0 0 0-.79-.806.798.798 0 0 0-.79.806zm-.948 7.255h3.476v-.644h-.948v-5.16h-2.528v.645h.948v4.515h-.949z"/></defs><g><g transform="translate(-1371 -2789)"><use fill="#878889" xlink:href="#t3vta"/><use fill="#71757e" xlink:href="#t3vta"/></g></g></svg>