<svg xmlns="http://www.w3.org/2000/svg" xmlns:xlink="http://www.w3.org/1999/xlink" width="15" height="15" viewBox="0 0 15 15"><defs><path id="w4u1a" d="M1385.216 2714.83a.74.74 0 0 1-1.072-.022l-3.454-3.736a5.602 5.602 0 0 1-3.331 1.095c-3.207 0-5.815-2.714-5.815-6.048s2.608-6.048 5.815-6.048c3.206 0 5.815 2.714 5.815 6.048a6.173 6.173 0 0 1-1.365 3.887l3.428 3.708c.29.314.28.814-.02 1.116zm-12.155-8.711c0 2.465 1.928 4.47 4.298 4.47s4.298-2.005 4.298-4.47c0-2.464-1.928-4.47-4.298-4.47s-4.298 2.006-4.298 4.47z"/></defs><g><g transform="translate(-1371 -2700)"><use fill="#878889" xlink:href="#w4u1a"/><use fill="#71757e" xlink:href="#w4u1a"/></g></g></svg>