<svg xmlns="http://www.w3.org/2000/svg" xmlns:xlink="http://www.w3.org/1999/xlink" width="16" height="11" viewBox="0 0 16 11"><defs><path id="mkkea" d="M1373.153 2768.36a.918.918 0 0 0 1.32.009.977.977 0 0 0 .007-1.356l-.74-.77h7.528c1.58 0 2.866 1.321 2.866 2.945v.079c0 .786-.298 1.526-.84 2.081a.977.977 0 0 0 0 1.356.917.917 0 0 0 1.32 0 4.897 4.897 0 0 0 1.386-3.437v-.08a4.897 4.897 0 0 0-1.386-3.436 4.638 4.638 0 0 0-3.346-1.423h-7.55l.75-.762a.977.977 0 0 0 .009-1.355.916.916 0 0 0-1.32-.008l-2.335 2.37a.973.973 0 0 0-.008 1.355z"/></defs><g><g transform="translate(-1370 -2762)"><use fill="#878889" xlink:href="#mkkea"/><use fill="#71757e" xlink:href="#mkkea"/></g></g></svg>