<svg xmlns="http://www.w3.org/2000/svg" xmlns:xlink="http://www.w3.org/1999/xlink" width="14" height="16" viewBox="0 0 14 16"><defs><path id="ri2oa" d="M1384.036 2735.905a2.7 2.7 0 0 1 .419 1.467c0 .618-.217 1.155-.65 1.612-.433.456-.946.684-1.54.684h-1.505c.274.594.41 1.17.41 1.728 0 .702-.1 1.26-.299 1.675-.2.414-.49.718-.872.914a2.808 2.808 0 0 1-1.292.292c-.29 0-.547-.111-.77-.333a2.196 2.196 0 0 1-.53-.973 13.239 13.239 0 0 1-.26-1.138c-.066-.363-.168-.62-.304-.77-.28-.318-.585-.702-.916-1.152-.576-.786-.966-1.251-1.172-1.395h-2.343a1.03 1.03 0 0 1-.774-.338 1.14 1.14 0 0 1-.321-.815v-5.761c0-.318.107-.59.32-.815a1.03 1.03 0 0 1 .775-.337h2.463c.126 0 .519-.12 1.18-.36a18.862 18.862 0 0 1 1.852-.59 6.578 6.578 0 0 1 1.621-.203h1.104c.804 0 1.45.242 1.941.725.49.483.733 1.142.728 1.976.342.462.513.996.513 1.602 0 .133-.009.262-.026.388a2.69 2.69 0 0 1 .248 1.917zm-10.692-4.132a.514.514 0 0 0-.385-.171.514.514 0 0 0-.385.17.57.57 0 0 0-.162.406c0 .156.054.291.162.405a.513.513 0 0 0 .385.171.512.512 0 0 0 .385-.171.567.567 0 0 0 .163-.405.57.57 0 0 0-.163-.405zm9.833 4.86c-.123-.276-.276-.417-.458-.422.086-.103.157-.245.214-.428.057-.183.085-.35.085-.5 0-.414-.15-.77-.453-1.071.103-.192.154-.399.154-.62 0-.223-.05-.444-.15-.663a.987.987 0 0 0-.406-.472c.029-.18.043-.348.043-.504 0-1.002-.548-1.503-1.643-1.503h-1.034c-.748 0-1.723.219-2.926.657a12.16 12.16 0 0 1-.248.095l-.304.112a13.62 13.62 0 0 1-.3.103 3.454 3.454 0 0 1-.607.158 1.655 1.655 0 0 1-.269.027h-.273v5.761h.273a.71.71 0 0 1 .304.08c.111.055.225.136.342.244.117.108.227.214.33.32.102.105.216.237.342.396a16.867 16.867 0 0 1 .564.751 15.7 15.7 0 0 0 .855 1.09c.234.258.404.586.51.985.105.4.192.776.26 1.13.068.354.177.61.325.765.548 0 .913-.14 1.095-.423.183-.282.274-.717.274-1.305 0-.354-.137-.836-.41-1.445-.275-.61-.411-1.088-.411-1.436h3.01c.286 0 .54-.115.762-.346.222-.232.334-.5.334-.806 0-.21-.062-.453-.184-.73z"/></defs><g><g transform="translate(-1371 -2729)"><use fill="#878889" xlink:href="#ri2oa"/><use fill="#5f5f5f" xlink:href="#ri2oa"/></g></g></svg>