<svg xmlns="http://www.w3.org/2000/svg" xmlns:xlink="http://www.w3.org/1999/xlink" width="16" height="11" viewBox="0 0 16 11"><defs><path id="hl7qa" d="M1385.454 2682.515v.823c0 .349-.279.648-.646.648h-.804a1.752 1.752 0 0 1-1.679 1.261 1.73 1.73 0 0 1-1.678-1.261h-5.717a1.751 1.751 0 0 1-1.678 1.261 1.73 1.73 0 0 1-1.678-1.261h-.928a.646.646 0 0 1-.646-.648v-7.688c0-.359.266-.651.595-.651h6.885c.33 0 .595.292.595.65v.71h2.553c.386 0 .719.193.928.473.019.016.034.054.053.07l1.346 2.033.786.123c.63 0 1.137.509 1.137 1.141v1.665a.661.661 0 0 1 .576.651zm-11.328.978a.877.877 0 0 0-.874-.876.89.89 0 0 0-.874.876c0 .474.383.877.874.877.49 0 .874-.403.874-.877zm5.146-4.495h2.467c.064 0 .102-.073.067-.127l-1.08-1.61c-.013-.023-.038-.035-.067-.035h-1.387a.082.082 0 0 0-.082.082v1.61c0 .048.038.083.082.083zm3.927 4.495a.877.877 0 0 0-.874-.876.89.89 0 0 0-.874.876c0 .474.383.877.874.877a.89.89 0 0 0 .874-.877z"/></defs><g><g transform="translate(-1370 -2675)"><use fill="#878889" xlink:href="#hl7qa"/><use fill="#71757e" xlink:href="#hl7qa"/></g></g></svg>